HIERARCHY
ROOT Hips
{
	OFFSET 0.000000 0.000000 0.000000
	CHANNELS 6 Xposition Yposition Zposition Yrotation Xrotation Zrotation
	JOINT Chest
	{
		OFFSET 0.000000 -0.009281 11.569106
		CHANNELS 3 Yrotation Xrotation Zrotation
		JOINT Chest2
		{
			OFFSET -0.000000 0.016865 9.269641
			CHANNELS 3 Yrotation Xrotation Zrotation
			JOINT Chest3
			{
				OFFSET -0.000000 0.000001 8.374491
				CHANNELS 3 Yrotation Xrotation Zrotation
				JOINT Chest4
				{
					OFFSET -0.000000 0.000001 8.374493
					CHANNELS 3 Yrotation Xrotation Zrotation
					JOINT Neck
					{
						OFFSET -0.000000 0.000002 12.152554
						CHANNELS 3 Yrotation Xrotation Zrotation
						JOINT Head
						{
							OFFSET -0.000000 0.040101 7.802319
							CHANNELS 3 Yrotation Xrotation Zrotation
							End Site
							{
								OFFSET -0.000000 0.020947 14.853096
							}
						}
					}
					JOINT RightCollar
					{
						OFFSET 2.894404 0.000001 6.791374
						CHANNELS 3 Yrotation Xrotation Zrotation
						JOINT RightShoulder
						{
							OFFSET 13.574684 0.000001 0.000000
							CHANNELS 3 Yrotation Xrotation Zrotation
							JOINT RightElbow
							{
								OFFSET 23.923903 0.000002 0.000000
								CHANNELS 3 Yrotation Xrotation Zrotation
								JOINT RightWrist
								{
									OFFSET 19.846718 0.012767 0.000000
									CHANNELS 3 Yrotation Xrotation Zrotation
									End Site
									{
										OFFSET 14.973145 0.000001 0.000000
									}
								}
							}
						}
					}
					JOINT LeftCollar
					{
						OFFSET -2.894404 0.000001 6.791374
						CHANNELS 3 Yrotation Xrotation Zrotation
						JOINT LeftShoulder
						{
							OFFSET -13.574684 -0.000001 0.000000
							CHANNELS 3 Yrotation Xrotation Zrotation
							JOINT LeftElbow
							{
								OFFSET -23.923903 -0.000002 0.000000
								CHANNELS 3 Yrotation Xrotation Zrotation
								JOINT LeftWrist
								{
									OFFSET -19.846718 0.012763 0.000000
									CHANNELS 3 Yrotation Xrotation Zrotation
									End Site
									{
										OFFSET -14.973145 -0.000001 0.000000
									}
								}
							}
						}
					}
				}
			}
		}
	}
	JOINT RightHip
	{
		OFFSET 9.469263 0.004643 0.045487
		CHANNELS 3 Yrotation Xrotation Zrotation
		JOINT RightKnee
		{
			OFFSET 0.000000 0.002661 -40.478676
			CHANNELS 3 Yrotation Xrotation Zrotation
			JOINT RightAnkle
			{
				OFFSET 0.000000 0.049106 -35.224068
				CHANNELS 3 Yrotation Xrotation Zrotation
				JOINT RightToe
				{
					OFFSET -0.000001 12.539529 -6.151390
					CHANNELS 3 Yrotation Xrotation Zrotation
					End Site
					{
						OFFSET -0.000001 5.044994 -1.291870
					}
				}
			}
		}
	}
	JOINT LeftHip
	{
		OFFSET -9.469263 0.004641 0.045487
		CHANNELS 3 Yrotation Xrotation Zrotation
		JOINT LeftKnee
		{
			OFFSET 0.000000 0.002661 -40.478676
			CHANNELS 3 Yrotation Xrotation Zrotation
			JOINT LeftAnkle
			{
				OFFSET 0.000000 0.049106 -35.224068
				CHANNELS 3 Yrotation Xrotation Zrotation
				JOINT LeftToe
				{
					OFFSET -0.000001 12.539529 -6.151390
					CHANNELS 3 Yrotation Xrotation Zrotation
					End Site
					{
						OFFSET -0.000001 5.044994 -1.291870
					}
				}
			}
		}
	}
}
MOTION
Frames: 8
Frame Time: 0.016667
6.182097 -15.621987 82.477127 -4.345795 0.071333 -119.735511 -1.296454 -4.953968 3.472768 -0.656509 -2.012903 1.364389 -0.656509 -2.012903 1.364390 -0.487840 -1.511154 1.021025 1.583153 -12.106077 -4.096791 1.278897 13.679038 -7.153920 9.924756 5.800209 -2.325843 42.342183 -15.924246 -14.393726 -27.346868 -60.910398 87.384122 -43.975227 40.045638 50.763079 -7.887064 5.680469 -6.877692 -40.935598 -9.085162 19.740160 -1.362282 -64.404476 -61.535374 29.677155 14.753057 -75.405603 -5.958009 6.544738 6.716234 3.940319 -25.658202 -6.491244 0.192651 10.989856 7.195529 1.932614 1.870466 0.016824 -0.293113 -0.254129 -2.995303 2.566251 -3.134726 -1.434872 -1.455687 2.142963 2.106424 -1.923768 -2.387332 0.405618 
6.586967 -15.909154 82.539558 -4.321140 -0.107029 -119.760865 -1.191519 -4.992609 3.596886 -0.656217 -1.971660 1.343610 -0.656217 -1.971660 1.343611 -0.487780 -1.480199 1.005490 1.562583 -12.173376 -4.113779 1.235668 13.552696 -7.193001 9.953893 5.923157 -2.333320 42.409068 -15.903028 -14.436068 -27.689648 -60.877189 87.554023 -43.840594 40.056119 50.863189 -7.942247 5.684811 -6.878041 -40.958083 -9.144134 19.884984 -1.713023 -64.490325 -61.152630 29.660800 15.009067 -75.339739 -5.817287 6.274987 5.150535 5.545732 -25.723242 -10.312612 -1.187260 10.778090 6.623482 1.867353 1.866884 -0.005083 0.173494 -0.617850 0.916539 2.449857 -3.144887 -0.287018 -0.604599 2.589028 2.549819 -2.104282 -2.300649 0.516816 
7.102012 -16.266624 82.611732 -4.300432 -0.219749 -119.703109 -1.124420 -5.009731 3.618702 -0.649152 -1.944745 1.306037 -0.649152 -1.944745 1.306038 -0.482663 -1.459956 0.977370 1.526966 -12.199222 -4.118676 1.166886 13.502910 -7.216665 9.955669 5.943789 -2.377074 42.464748 -16.017483 -14.306162 -27.944515 -60.741767 87.592989 -43.723026 40.109784 50.954881 -7.979065 5.602726 -6.889276 -40.976146 -9.139570 20.045751 -2.302644 -64.603146 -60.622546 29.704073 15.264037 -75.203238 -5.739412 5.747948 2.325305 6.641949 -25.221524 -12.996147 -2.543583 10.389152 5.586057 1.760679 1.785467 -0.005275 0.686209 -1.115162 4.798889 2.305576 -3.041706 0.761102 -0.090829 2.746411 2.979443 -2.107161 -1.939824 0.470072 
7.767676 -16.726603 82.672325 -4.255890 -0.223082 -119.519773 -1.124689 -4.990210 3.509018 -0.643664 -1.932102 1.266396 -0.643664 -1.932103 1.266398 -0.478700 -1.450419 0.947678 1.492864 -12.176624 -4.127695 1.096871 13.542930 -7.249123 9.953618 5.878337 -2.386596 42.436956 -16.087857 -14.085276 -27.921226 -60.685261 87.442144 -43.648689 40.136312 51.001091 -7.971340 5.520935 -6.888347 -41.024838 -9.136037 20.184211 -2.916708 -64.685908 -60.086178 29.793145 15.494803 -75.074858 -5.773979 5.078782 -1.353246 7.224039 -24.230678 -15.337458 -3.586117 9.792755 4.705402 2.350003 2.949478 0.056574 1.069984 -1.664058 8.212266 2.111504 -2.901787 1.531188 0.280110 2.705113 3.662373 -2.015637 -1.389601 0.349579 
8.559035 -17.108412 82.703560 -3.922371 0.092315 -119.014516 -1.245387 -4.598241 3.065560 -0.642527 -1.933112 1.244479 -0.642527 -1.933111 1.244475 -0.477915 -1.451151 0.931238 1.482585 -12.119074 -4.156585 1.062117 13.648285 -7.310620 9.950527 5.861253 -2.417491 42.336299 -16.155458 -13.874806 -27.633827 -60.769129 87.178281 -43.616758 40.103323 50.986041 -7.920425 5.451731 -6.910873 -41.100407 -9.130593 20.278138 -3.301149 -64.670512 -59.748480 29.873144 15.649027 -74.996959 -5.985575 4.658088 -5.693304 7.460324 -22.900617 -17.466482 -4.345508 9.095059 4.031383 2.927624 3.792670 0.122313 1.229615 -1.773299 10.472156 1.895695 -2.819910 2.188713 0.647199 2.334279 4.831733 -1.962031 -0.621058 0.098527 
9.522757 -17.408607 82.710373 -3.819237 0.167724 -118.881724 -1.301267 -4.525845 2.975815 -0.646530 -1.944440 1.250683 -0.646530 -1.944440 1.250685 -0.480873 -1.459663 0.935866 1.497079 -12.048906 -4.202350 1.066784 13.777709 -7.394289 9.912086 5.830674 -2.465058 42.240427 -16.186701 -13.693222 -27.277528 -60.910254 86.956976 -43.631214 40.017375 50.920665 -7.870589 5.429555 -6.932650 -41.147023 -9.125035 20.322944 -3.360853 -64.615550 -59.707164 29.924080 15.741428 -74.950125 -6.010211 3.899167 -9.478061 7.426574 -21.487002 -19.178562 -4.905144 8.494746 3.347428 3.530145 4.327443 0.166703 1.355664 -2.339481 11.966541 1.615211 -2.790331 2.908525 0.757307 2.048136 5.782881 -1.702018 0.150077 0.020899 
10.546357 -17.488400 82.709633 -3.814120 0.318222 -118.902419 -1.451979 -4.487865 2.997276 -0.666397 -1.961905 1.285373 -0.666398 -1.961905 1.285372 -0.495624 -1.472841 0.961794 1.531507 -11.978898 -4.256860 1.105731 13.907517 -7.486204 9.852879 5.740211 -2.495597 42.223564 -16.182228 -13.566662 -26.994096 -61.013383 86.834223 -43.659023 39.897208 50.838314 -7.825890 5.461024 -6.922285 -41.109399 -9.113089 20.316799 -3.279272 -64.598789 -59.827280 29.909955 15.783319 -74.938486 -6.158224 3.139685 -12.645860 7.071755 -20.260949 -20.002045 -5.345635 8.084240 2.606696 3.277169 3.337387 0.141524 1.169393 -2.885701 12.473484 1.268979 -2.914502 3.747299 0.590514 1.899711 6.551332 -1.144648 0.830131 -0.043925 
11.529780 -17.349678 82.723389 -3.887027 0.611472 -118.996553 -1.728901 -4.456594 3.047260 -0.701923 -1.980649 1.332382 -0.701923 -1.980649 1.332381 -0.522073 -1.487027 0.996913 1.569036 -11.904906 -4.299382 1.155460 14.045270 -7.554046 9.788942 5.596944 -2.492450 42.282716 -16.182632 -13.451244 -26.827798 -61.057294 86.788106 -43.699202 39.768875 50.754514 -7.833911 5.597197 -6.908404 -40.971535 -9.098199 20.342834 -3.167477 -64.612640 -59.988302 29.789938 15.779142 -75.051068 -6.526542 2.486893 -14.778281 5.987875 -19.692863 -19.710905 -4.906470 8.134558 2.184389 3.032313 2.406861 0.123434 0.576674 -3.293104 12.053033 0.913123 -3.167397 4.508744 0.678911 2.056052 7.405038 -0.710176 1.179269 -0.078643 
